<mxfile host="app.diagrams.net" modified="2024-01-04T21:52:58.143Z" agent="Mozilla/5.0 (Windows NT 10.0; Win64; x64) AppleWebKit/537.36 (KHTML, like Gecko) Chrome/120.0.0.0 Safari/537.36" etag="jasSU_UiHWqJxCe2Sg82" version="22.1.16" type="device">
  <diagram name="Pagina-1" id="eSXubq2SdgC4gajSJNTV">
    <mxGraphModel dx="2261" dy="746" grid="1" gridSize="10" guides="1" tooltips="1" connect="1" arrows="1" fold="1" page="1" pageScale="1" pageWidth="827" pageHeight="1169" math="0" shadow="0">
      <root>
        <mxCell id="0" />
        <mxCell id="1" parent="0" />
        <mxCell id="zCw94SQj6-W_WB1Qynqs-1" value="Badge Manager&amp;nbsp;" style="shape=umlLifeline;perimeter=lifelinePerimeter;whiteSpace=wrap;html=1;container=1;dropTarget=0;collapsible=0;recursiveResize=0;outlineConnect=0;portConstraint=eastwest;newEdgeStyle={&quot;curved&quot;:0,&quot;rounded&quot;:0};" parent="1" vertex="1">
          <mxGeometry x="414" y="40" width="120" height="730" as="geometry" />
        </mxCell>
        <mxCell id="A8Glidg6pX9W6yxCaNTG-3" value="Web App" style="shape=umlLifeline;perimeter=lifelinePerimeter;whiteSpace=wrap;html=1;container=0;dropTarget=0;collapsible=0;recursiveResize=0;outlineConnect=0;portConstraint=eastwest;newEdgeStyle={&quot;edgeStyle&quot;:&quot;elbowEdgeStyle&quot;,&quot;elbow&quot;:&quot;vertical&quot;,&quot;curved&quot;:0,&quot;rounded&quot;:0};" parent="1" vertex="1">
          <mxGeometry x="80" y="40" width="100" height="730" as="geometry" />
        </mxCell>
        <mxCell id="A8Glidg6pX9W6yxCaNTG-5" value="" style="html=1;points=[];perimeter=orthogonalPerimeter;outlineConnect=0;targetShapes=umlLifeline;portConstraint=eastwest;newEdgeStyle={&quot;edgeStyle&quot;:&quot;elbowEdgeStyle&quot;,&quot;elbow&quot;:&quot;vertical&quot;,&quot;curved&quot;:0,&quot;rounded&quot;:0};" parent="A8Glidg6pX9W6yxCaNTG-3" vertex="1">
          <mxGeometry x="45" y="150" width="10" height="190" as="geometry" />
        </mxCell>
        <mxCell id="A8Glidg6pX9W6yxCaNTG-1" value="Tournament manager&amp;nbsp;" style="shape=umlLifeline;perimeter=lifelinePerimeter;whiteSpace=wrap;html=1;container=1;dropTarget=0;collapsible=0;recursiveResize=0;outlineConnect=0;portConstraint=eastwest;newEdgeStyle={&quot;curved&quot;:0,&quot;rounded&quot;:0};" parent="1" vertex="1">
          <mxGeometry x="250" y="40" width="120" height="730" as="geometry" />
        </mxCell>
        <mxCell id="A8Glidg6pX9W6yxCaNTG-2" value="" style="html=1;points=[];perimeter=orthogonalPerimeter;outlineConnect=0;targetShapes=umlLifeline;portConstraint=eastwest;newEdgeStyle={&quot;edgeStyle&quot;:&quot;elbowEdgeStyle&quot;,&quot;elbow&quot;:&quot;vertical&quot;,&quot;curved&quot;:0,&quot;rounded&quot;:0};direction=west;" parent="A8Glidg6pX9W6yxCaNTG-1" vertex="1">
          <mxGeometry x="55" y="182" width="10" height="128" as="geometry" />
        </mxCell>
        <mxCell id="A8Glidg6pX9W6yxCaNTG-6" value="&lt;font style=&quot;font-size: 9px;&quot;&gt;Student&lt;/font&gt;" style="shape=umlActor;verticalLabelPosition=bottom;verticalAlign=top;html=1;outlineConnect=0;" parent="1" vertex="1">
          <mxGeometry x="-100" y="40" width="20" height="40" as="geometry" />
        </mxCell>
        <mxCell id="A8Glidg6pX9W6yxCaNTG-8" value="" style="html=1;points=[];perimeter=orthogonalPerimeter;outlineConnect=0;targetShapes=umlLifeline;portConstraint=eastwest;newEdgeStyle={&quot;edgeStyle&quot;:&quot;elbowEdgeStyle&quot;,&quot;elbow&quot;:&quot;vertical&quot;,&quot;curved&quot;:0,&quot;rounded&quot;:0};" parent="1" vertex="1">
          <mxGeometry x="-95" y="110" width="10" height="650" as="geometry" />
        </mxCell>
        <mxCell id="A8Glidg6pX9W6yxCaNTG-11" value="&lt;font style=&quot;font-size: 9px;&quot;&gt;2 : getSubscribedTournaments(userId)&lt;/font&gt;" style="html=1;verticalAlign=bottom;endArrow=block;edgeStyle=elbowEdgeStyle;elbow=horizontal;curved=0;rounded=0;" parent="1" source="A8Glidg6pX9W6yxCaNTG-5" edge="1" target="A8Glidg6pX9W6yxCaNTG-2">
          <mxGeometry relative="1" as="geometry">
            <mxPoint x="140.00000000000023" y="222" as="sourcePoint" />
            <Array as="points">
              <mxPoint x="235" y="222" />
              <mxPoint x="254" y="222" />
            </Array>
            <mxPoint x="310" y="222" as="targetPoint" />
            <mxPoint as="offset" />
          </mxGeometry>
        </mxCell>
        <mxCell id="A8Glidg6pX9W6yxCaNTG-12" value="" style="endArrow=none;dashed=1;html=1;rounded=0;" parent="1" edge="1">
          <mxGeometry width="50" height="50" relative="1" as="geometry">
            <mxPoint x="-90.43" y="110" as="sourcePoint" />
            <mxPoint x="-90.43" y="100" as="targetPoint" />
          </mxGeometry>
        </mxCell>
        <mxCell id="A8Glidg6pX9W6yxCaNTG-15" value="&lt;font style=&quot;font-size: 9px;&quot;&gt;1 : click(myTournamentsButton)&lt;/font&gt;" style="html=1;verticalAlign=bottom;endArrow=block;edgeStyle=elbowEdgeStyle;elbow=horizontal;curved=0;rounded=0;" parent="1" edge="1">
          <mxGeometry relative="1" as="geometry">
            <mxPoint x="-85" y="190" as="sourcePoint" />
            <Array as="points">
              <mxPoint x="30" y="190" />
            </Array>
            <mxPoint x="125" y="190" as="targetPoint" />
          </mxGeometry>
        </mxCell>
        <mxCell id="A8Glidg6pX9W6yxCaNTG-26" value="&lt;font style=&quot;font-size: 9px;&quot;&gt;5 : getTournamentsScores(query)&lt;/font&gt;" style="html=1;verticalAlign=bottom;endArrow=block;edgeStyle=elbowEdgeStyle;elbow=horizontal;curved=0;rounded=0;" parent="1" target="A8Glidg6pX9W6yxCaNTG-18" edge="1">
          <mxGeometry relative="1" as="geometry">
            <mxPoint x="315" y="290" as="sourcePoint" />
            <Array as="points">
              <mxPoint x="510" y="290" />
              <mxPoint x="450" y="280" />
              <mxPoint x="469" y="280" />
            </Array>
            <mxPoint x="450" y="280" as="targetPoint" />
            <mxPoint as="offset" />
          </mxGeometry>
        </mxCell>
        <mxCell id="A8Glidg6pX9W6yxCaNTG-28" value="&lt;font style=&quot;font-size: 9px;&quot;&gt;6 : userTournamentsScores&lt;/font&gt;" style="html=1;verticalAlign=bottom;endArrow=openThin;dashed=1;endSize=8;edgeStyle=elbowEdgeStyle;elbow=horizontal;curved=0;rounded=0;endFill=0;" parent="1" source="A8Glidg6pX9W6yxCaNTG-18" edge="1">
          <mxGeometry relative="1" as="geometry">
            <mxPoint x="315" y="320" as="targetPoint" />
            <Array as="points">
              <mxPoint x="420" y="320" />
            </Array>
            <mxPoint x="550" y="310" as="sourcePoint" />
          </mxGeometry>
        </mxCell>
        <mxCell id="A8Glidg6pX9W6yxCaNTG-29" value="&lt;font style=&quot;font-size: 9px;&quot;&gt;7 : userTournamentScores&lt;/font&gt;" style="html=1;verticalAlign=bottom;endArrow=openThin;dashed=1;endSize=8;edgeStyle=elbowEdgeStyle;elbow=horizontal;curved=0;rounded=0;endFill=0;" parent="1" edge="1" target="A8Glidg6pX9W6yxCaNTG-5" source="A8Glidg6pX9W6yxCaNTG-2">
          <mxGeometry relative="1" as="geometry">
            <mxPoint x="128.92000000000021" y="350.0000000000001" as="targetPoint" />
            <Array as="points">
              <mxPoint x="208.92" y="350" />
            </Array>
            <mxPoint x="303.92" y="350" as="sourcePoint" />
          </mxGeometry>
        </mxCell>
        <mxCell id="A8Glidg6pX9W6yxCaNTG-30" value="&lt;font size=&quot;1&quot;&gt;8 : showPage(yourTournamentsPage)&lt;/font&gt;" style="html=1;verticalAlign=bottom;endArrow=openThin;dashed=1;endSize=8;edgeStyle=elbowEdgeStyle;elbow=horizontal;curved=0;rounded=0;endFill=0;" parent="1" edge="1" target="A8Glidg6pX9W6yxCaNTG-8" source="A8Glidg6pX9W6yxCaNTG-5">
          <mxGeometry relative="1" as="geometry">
            <mxPoint x="-84.99999999999977" y="380.0000000000001" as="targetPoint" />
            <Array as="points">
              <mxPoint x="-5" y="380" />
            </Array>
            <mxPoint x="125.00000000000023" y="380.0000000000001" as="sourcePoint" />
            <mxPoint as="offset" />
          </mxGeometry>
        </mxCell>
        <mxCell id="A8Glidg6pX9W6yxCaNTG-17" value="DBMS" style="shape=umlLifeline;perimeter=lifelinePerimeter;whiteSpace=wrap;html=1;container=0;dropTarget=0;collapsible=0;recursiveResize=0;outlineConnect=0;portConstraint=eastwest;newEdgeStyle={&quot;curved&quot;:0,&quot;rounded&quot;:0};" parent="1" vertex="1">
          <mxGeometry x="710" y="40" width="90" height="730" as="geometry" />
        </mxCell>
        <mxCell id="A8Glidg6pX9W6yxCaNTG-18" value="" style="html=1;points=[];perimeter=orthogonalPerimeter;outlineConnect=0;targetShapes=umlLifeline;portConstraint=eastwest;newEdgeStyle={&quot;edgeStyle&quot;:&quot;elbowEdgeStyle&quot;,&quot;elbow&quot;:&quot;vertical&quot;,&quot;curved&quot;:0,&quot;rounded&quot;:0};" parent="A8Glidg6pX9W6yxCaNTG-17" vertex="1">
          <mxGeometry x="40.00000000000002" y="250" width="10" height="30" as="geometry" />
        </mxCell>
        <mxCell id="Z0eBupUTOme7VVrgAo7x-20" value="&lt;font style=&quot;font-size: 9px;&quot;&gt;15 : getUserBadges(query)&lt;/font&gt;" style="html=1;verticalAlign=bottom;endArrow=block;edgeStyle=elbowEdgeStyle;elbow=horizontal;curved=0;rounded=0;" parent="A8Glidg6pX9W6yxCaNTG-17" target="Z0eBupUTOme7VVrgAo7x-27" edge="1">
          <mxGeometry x="-0.0004" relative="1" as="geometry">
            <mxPoint x="-233.15999999999985" y="570" as="sourcePoint" />
            <Array as="points">
              <mxPoint x="-200.39999999999998" y="570" />
              <mxPoint x="-260.4" y="560" />
              <mxPoint x="-241.39999999999998" y="560" />
            </Array>
            <mxPoint x="-260.4" y="560" as="targetPoint" />
            <mxPoint as="offset" />
          </mxGeometry>
        </mxCell>
        <mxCell id="Z0eBupUTOme7VVrgAo7x-21" value="&lt;font style=&quot;font-size: 9px;&quot;&gt;16 : userBadges&lt;/font&gt;" style="html=1;verticalAlign=bottom;endArrow=openThin;dashed=1;endSize=8;edgeStyle=elbowEdgeStyle;elbow=horizontal;curved=0;rounded=0;endFill=0;" parent="A8Glidg6pX9W6yxCaNTG-17" source="Z0eBupUTOme7VVrgAo7x-27" edge="1">
          <mxGeometry relative="1" as="geometry">
            <mxPoint x="-233.15999999999985" y="600" as="targetPoint" />
            <Array as="points">
              <mxPoint x="-112.16000000000008" y="600" />
            </Array>
            <mxPoint x="-160.4000000000001" y="590" as="sourcePoint" />
          </mxGeometry>
        </mxCell>
        <mxCell id="Z0eBupUTOme7VVrgAo7x-27" value="" style="html=1;points=[];perimeter=orthogonalPerimeter;outlineConnect=0;targetShapes=umlLifeline;portConstraint=eastwest;newEdgeStyle={&quot;edgeStyle&quot;:&quot;elbowEdgeStyle&quot;,&quot;elbow&quot;:&quot;vertical&quot;,&quot;curved&quot;:0,&quot;rounded&quot;:0};" parent="A8Glidg6pX9W6yxCaNTG-17" vertex="1">
          <mxGeometry x="39.999999999999886" y="570" width="10" height="30" as="geometry" />
        </mxCell>
        <mxCell id="Z0eBupUTOme7VVrgAo7x-4" value="&lt;font style=&quot;font-size: 9px;&quot;&gt;3 : checkUser(sessionData)&lt;/font&gt;" style="text;html=1;align=center;verticalAlign=middle;resizable=0;points=[];autosize=1;strokeColor=none;fillColor=none;" parent="1" vertex="1">
          <mxGeometry x="420" y="200" width="130" height="30" as="geometry" />
        </mxCell>
        <mxCell id="Z0eBupUTOme7VVrgAo7x-5" value="Account Manager" style="shape=umlLifeline;perimeter=lifelinePerimeter;whiteSpace=wrap;html=1;container=0;dropTarget=0;collapsible=0;recursiveResize=0;outlineConnect=0;portConstraint=eastwest;newEdgeStyle={&quot;edgeStyle&quot;:&quot;elbowEdgeStyle&quot;,&quot;elbow&quot;:&quot;vertical&quot;,&quot;curved&quot;:0,&quot;rounded&quot;:0};" parent="1" vertex="1">
          <mxGeometry x="570" y="40" width="120" height="730" as="geometry" />
        </mxCell>
        <mxCell id="Z0eBupUTOme7VVrgAo7x-1" value="" style="html=1;points=[];perimeter=orthogonalPerimeter;outlineConnect=0;targetShapes=umlLifeline;portConstraint=eastwest;newEdgeStyle={&quot;edgeStyle&quot;:&quot;elbowEdgeStyle&quot;,&quot;elbow&quot;:&quot;vertical&quot;,&quot;curved&quot;:0,&quot;rounded&quot;:0};" parent="Z0eBupUTOme7VVrgAo7x-5" vertex="1">
          <mxGeometry x="55" y="190" width="10" height="30" as="geometry" />
        </mxCell>
        <mxCell id="Z0eBupUTOme7VVrgAo7x-32" value="" style="html=1;points=[];perimeter=orthogonalPerimeter;outlineConnect=0;targetShapes=umlLifeline;portConstraint=eastwest;newEdgeStyle={&quot;edgeStyle&quot;:&quot;elbowEdgeStyle&quot;,&quot;elbow&quot;:&quot;vertical&quot;,&quot;curved&quot;:0,&quot;rounded&quot;:0};" parent="Z0eBupUTOme7VVrgAo7x-5" vertex="1">
          <mxGeometry x="55" y="510" width="10" height="30" as="geometry" />
        </mxCell>
        <mxCell id="Z0eBupUTOme7VVrgAo7x-29" value="" style="endArrow=classic;html=1;rounded=0;" parent="Z0eBupUTOme7VVrgAo7x-5" target="Z0eBupUTOme7VVrgAo7x-32" edge="1">
          <mxGeometry width="50" height="50" relative="1" as="geometry">
            <mxPoint x="-92.15999999999997" y="510" as="sourcePoint" />
            <mxPoint x="15.599999999999909" y="510" as="targetPoint" />
          </mxGeometry>
        </mxCell>
        <mxCell id="Z0eBupUTOme7VVrgAo7x-30" value="&lt;font style=&quot;font-size: 9px;&quot;&gt;14 : outcomePermissionCheck&lt;/font&gt;" style="html=1;verticalAlign=bottom;endArrow=open;dashed=1;endSize=8;edgeStyle=elbowEdgeStyle;elbow=horizontal;curved=0;rounded=0;" parent="Z0eBupUTOme7VVrgAo7x-5" source="Z0eBupUTOme7VVrgAo7x-32" edge="1">
          <mxGeometry relative="1" as="geometry">
            <mxPoint x="-92.15999999999997" y="540" as="targetPoint" />
            <Array as="points">
              <mxPoint x="-2.160000000000082" y="540" />
            </Array>
            <mxPoint x="15.599999999999909" y="540" as="sourcePoint" />
          </mxGeometry>
        </mxCell>
        <mxCell id="Z0eBupUTOme7VVrgAo7x-7" value="&lt;font style=&quot;font-size: 9px;&quot;&gt;&lt;b&gt;alt &lt;/b&gt;: outcomePermissionCheck == true&lt;/font&gt;" style="shape=umlFrame;whiteSpace=wrap;html=1;pointerEvents=0;width=130;height=30;" parent="1" vertex="1">
          <mxGeometry x="-230" y="270" width="1030" height="200" as="geometry" />
        </mxCell>
        <mxCell id="Z0eBupUTOme7VVrgAo7x-8" value="" style="endArrow=none;dashed=1;html=1;rounded=0;strokeWidth=2;exitX=-0.002;exitY=0.688;exitDx=0;exitDy=0;exitPerimeter=0;" parent="1" edge="1">
          <mxGeometry width="50" height="50" relative="1" as="geometry">
            <mxPoint x="-229.99999999999994" y="399.99999999999994" as="sourcePoint" />
            <mxPoint x="800" y="400" as="targetPoint" />
          </mxGeometry>
        </mxCell>
        <mxCell id="Z0eBupUTOme7VVrgAo7x-9" value="[then]" style="text;html=1;strokeColor=none;fillColor=none;align=center;verticalAlign=middle;whiteSpace=wrap;rounded=0;fontSize=10;" parent="1" vertex="1">
          <mxGeometry x="-180" y="310" width="35" height="10" as="geometry" />
        </mxCell>
        <mxCell id="Z0eBupUTOme7VVrgAo7x-10" value="[else]" style="text;html=1;strokeColor=none;fillColor=none;align=center;verticalAlign=middle;whiteSpace=wrap;rounded=0;fontSize=10;" parent="1" vertex="1">
          <mxGeometry x="-180" y="410.0000000000001" width="35" height="10" as="geometry" />
        </mxCell>
        <mxCell id="Z0eBupUTOme7VVrgAo7x-11" value="" style="html=1;points=[];perimeter=orthogonalPerimeter;outlineConnect=0;targetShapes=umlLifeline;portConstraint=eastwest;newEdgeStyle={&quot;edgeStyle&quot;:&quot;elbowEdgeStyle&quot;,&quot;elbow&quot;:&quot;vertical&quot;,&quot;curved&quot;:0,&quot;rounded&quot;:0};" parent="1" vertex="1">
          <mxGeometry x="125" y="400" width="10" height="53" as="geometry" />
        </mxCell>
        <mxCell id="Z0eBupUTOme7VVrgAo7x-12" value="" style="html=1;points=[];perimeter=orthogonalPerimeter;outlineConnect=0;targetShapes=umlLifeline;portConstraint=eastwest;newEdgeStyle={&quot;edgeStyle&quot;:&quot;elbowEdgeStyle&quot;,&quot;elbow&quot;:&quot;vertical&quot;,&quot;curved&quot;:0,&quot;rounded&quot;:0};" parent="1" vertex="1">
          <mxGeometry x="305" y="400" width="10" height="20" as="geometry" />
        </mxCell>
        <mxCell id="Z0eBupUTOme7VVrgAo7x-13" value="&lt;font style=&quot;font-size: 9px;&quot;&gt;10 : showMessage(permissionDenied)&lt;/font&gt;" style="html=1;verticalAlign=bottom;endArrow=open;dashed=1;endSize=8;edgeStyle=elbowEdgeStyle;elbow=vertical;curved=0;rounded=0;" parent="1" edge="1" source="Z0eBupUTOme7VVrgAo7x-11">
          <mxGeometry x="0.0187" relative="1" as="geometry">
            <mxPoint x="-85" y="452.47" as="targetPoint" />
            <Array as="points">
              <mxPoint x="-20" y="452" />
              <mxPoint x="60" y="450" />
              <mxPoint x="120" y="450" />
            </Array>
            <mxPoint x="130" y="452" as="sourcePoint" />
            <mxPoint as="offset" />
          </mxGeometry>
        </mxCell>
        <mxCell id="Z0eBupUTOme7VVrgAo7x-14" value="&lt;font style=&quot;font-size: 9px;&quot;&gt;9 : outcomeMessage&lt;/font&gt;" style="html=1;verticalAlign=bottom;endArrow=open;dashed=1;endSize=8;edgeStyle=elbowEdgeStyle;elbow=horizontal;curved=0;rounded=0;" parent="1" source="Z0eBupUTOme7VVrgAo7x-12" target="Z0eBupUTOme7VVrgAo7x-11" edge="1">
          <mxGeometry x="0.0367" relative="1" as="geometry">
            <mxPoint x="240" y="420.94000000000005" as="targetPoint" />
            <Array as="points">
              <mxPoint x="250" y="420" />
            </Array>
            <mxPoint x="270" y="420" as="sourcePoint" />
            <mxPoint as="offset" />
          </mxGeometry>
        </mxCell>
        <mxCell id="A8Glidg6pX9W6yxCaNTG-22" value="&lt;b&gt;ref&lt;/b&gt;" style="shape=umlFrame;whiteSpace=wrap;html=1;pointerEvents=0;width=50;height=15;labelBorderColor=none;labelBackgroundColor=none;fontColor=default;swimlaneFillColor=default;" parent="1" vertex="1">
          <mxGeometry x="-160" y="120" width="960" height="40" as="geometry" />
        </mxCell>
        <mxCell id="A8Glidg6pX9W6yxCaNTG-52" value="&lt;font style=&quot;font-size: 18px;&quot;&gt;Login&lt;/font&gt;" style="text;html=1;strokeColor=none;fillColor=none;align=center;verticalAlign=middle;whiteSpace=wrap;rounded=0;" parent="1" vertex="1">
          <mxGeometry x="384" y="125" width="60" height="30" as="geometry" />
        </mxCell>
        <mxCell id="Z0eBupUTOme7VVrgAo7x-17" value="" style="html=1;points=[];perimeter=orthogonalPerimeter;outlineConnect=0;targetShapes=umlLifeline;portConstraint=eastwest;newEdgeStyle={&quot;edgeStyle&quot;:&quot;elbowEdgeStyle&quot;,&quot;elbow&quot;:&quot;vertical&quot;,&quot;curved&quot;:0,&quot;rounded&quot;:0};direction=west;" parent="1" vertex="1">
          <mxGeometry x="468.84" y="520" width="10" height="140" as="geometry" />
        </mxCell>
        <mxCell id="Z0eBupUTOme7VVrgAo7x-16" value="" style="html=1;points=[];perimeter=orthogonalPerimeter;outlineConnect=0;targetShapes=umlLifeline;portConstraint=eastwest;newEdgeStyle={&quot;edgeStyle&quot;:&quot;elbowEdgeStyle&quot;,&quot;elbow&quot;:&quot;vertical&quot;,&quot;curved&quot;:0,&quot;rounded&quot;:0};" parent="1" vertex="1">
          <mxGeometry x="124.6" y="500" width="10" height="180" as="geometry" />
        </mxCell>
        <mxCell id="Z0eBupUTOme7VVrgAo7x-18" value="&lt;font style=&quot;font-size: 9px;&quot;&gt;12 :&amp;nbsp;getBadges(userId)&lt;/font&gt;" style="html=1;verticalAlign=bottom;endArrow=block;edgeStyle=elbowEdgeStyle;elbow=horizontal;curved=0;rounded=0;" parent="1" source="Z0eBupUTOme7VVrgAo7x-16" edge="1">
          <mxGeometry relative="1" as="geometry">
            <mxPoint x="136.7599999999999" y="520" as="sourcePoint" />
            <Array as="points">
              <mxPoint x="236.7599999999999" y="520" />
              <mxPoint x="255.7599999999999" y="520" />
            </Array>
            <mxPoint x="469.00000000000017" y="520" as="targetPoint" />
            <mxPoint as="offset" />
          </mxGeometry>
        </mxCell>
        <mxCell id="Z0eBupUTOme7VVrgAo7x-19" value="&lt;font style=&quot;font-size: 9px;&quot;&gt;11 : click(myBadgesButton)&lt;/font&gt;" style="html=1;verticalAlign=bottom;endArrow=block;edgeStyle=elbowEdgeStyle;elbow=horizontal;curved=0;rounded=0;" parent="1" edge="1">
          <mxGeometry relative="1" as="geometry">
            <mxPoint x="-85.39999999999998" y="500" as="sourcePoint" />
            <Array as="points">
              <mxPoint x="29.59999999999991" y="500" />
            </Array>
            <mxPoint x="124.60000000000002" y="500" as="targetPoint" />
          </mxGeometry>
        </mxCell>
        <mxCell id="Z0eBupUTOme7VVrgAo7x-22" value="&lt;font style=&quot;font-size: 9px;&quot;&gt;17 : outcomeUserBadges&lt;/font&gt;" style="html=1;verticalAlign=bottom;endArrow=openThin;dashed=1;endSize=8;edgeStyle=elbowEdgeStyle;elbow=horizontal;curved=0;rounded=0;endFill=0;" parent="1" target="Z0eBupUTOme7VVrgAo7x-16" edge="1">
          <mxGeometry relative="1" as="geometry">
            <mxPoint x="136.7599999999999" y="660" as="targetPoint" />
            <Array as="points">
              <mxPoint x="372.50000000000006" y="660" />
            </Array>
            <mxPoint x="467.50000000000006" y="660" as="sourcePoint" />
          </mxGeometry>
        </mxCell>
        <mxCell id="Z0eBupUTOme7VVrgAo7x-23" value="&lt;font size=&quot;1&quot;&gt;18 : showPage(yourBadgesPage)&lt;/font&gt;" style="html=1;verticalAlign=bottom;endArrow=openThin;dashed=1;endSize=8;edgeStyle=elbowEdgeStyle;elbow=horizontal;curved=0;rounded=0;endFill=0;" parent="1" edge="1" target="A8Glidg6pX9W6yxCaNTG-8" source="Z0eBupUTOme7VVrgAo7x-16">
          <mxGeometry relative="1" as="geometry">
            <mxPoint x="-79.99999999999974" y="680.0000000000001" as="targetPoint" />
            <Array as="points">
              <mxPoint x="-9.059419880941277e-14" y="680" />
            </Array>
            <mxPoint x="130.00000000000026" y="680.0000000000001" as="sourcePoint" />
          </mxGeometry>
        </mxCell>
        <mxCell id="Z0eBupUTOme7VVrgAo7x-31" value="&lt;font style=&quot;font-size: 9px;&quot;&gt;13 : checkUser(sessionData)&lt;/font&gt;" style="text;html=1;align=center;verticalAlign=middle;resizable=0;points=[];autosize=1;strokeColor=none;fillColor=none;" parent="1" vertex="1">
          <mxGeometry x="476.84000000000003" y="525" width="140" height="30" as="geometry" />
        </mxCell>
        <mxCell id="Z0eBupUTOme7VVrgAo7x-33" value="&lt;font style=&quot;font-size: 9px;&quot;&gt;&lt;b&gt;alt &lt;/b&gt;: outcomePermissionCheck == true&lt;/font&gt;" style="shape=umlFrame;whiteSpace=wrap;html=1;pointerEvents=0;width=130;height=30;" parent="1" vertex="1">
          <mxGeometry x="-230" y="590" width="1030" height="180" as="geometry" />
        </mxCell>
        <mxCell id="Z0eBupUTOme7VVrgAo7x-35" value="[then]" style="text;html=1;strokeColor=none;fillColor=none;align=center;verticalAlign=middle;whiteSpace=wrap;rounded=0;fontSize=10;" parent="1" vertex="1">
          <mxGeometry x="-190" y="630" width="35" height="10" as="geometry" />
        </mxCell>
        <mxCell id="Z0eBupUTOme7VVrgAo7x-36" value="[else]" style="text;html=1;strokeColor=none;fillColor=none;align=center;verticalAlign=middle;whiteSpace=wrap;rounded=0;fontSize=10;" parent="1" vertex="1">
          <mxGeometry x="-190.0000000000001" y="720.0000000000001" width="35" height="10" as="geometry" />
        </mxCell>
        <mxCell id="Z0eBupUTOme7VVrgAo7x-37" value="" style="html=1;points=[];perimeter=orthogonalPerimeter;outlineConnect=0;targetShapes=umlLifeline;portConstraint=eastwest;newEdgeStyle={&quot;edgeStyle&quot;:&quot;elbowEdgeStyle&quot;,&quot;elbow&quot;:&quot;vertical&quot;,&quot;curved&quot;:0,&quot;rounded&quot;:0};" parent="1" vertex="1">
          <mxGeometry x="124.99999999999999" y="702" width="10" height="53" as="geometry" />
        </mxCell>
        <mxCell id="Z0eBupUTOme7VVrgAo7x-38" value="" style="html=1;points=[];perimeter=orthogonalPerimeter;outlineConnect=0;targetShapes=umlLifeline;portConstraint=eastwest;newEdgeStyle={&quot;edgeStyle&quot;:&quot;elbowEdgeStyle&quot;,&quot;elbow&quot;:&quot;vertical&quot;,&quot;curved&quot;:0,&quot;rounded&quot;:0};" parent="1" vertex="1">
          <mxGeometry x="469.00000000000006" y="702" width="10" height="20" as="geometry" />
        </mxCell>
        <mxCell id="Z0eBupUTOme7VVrgAo7x-39" value="&lt;font style=&quot;font-size: 9px;&quot;&gt;20 : showMessage(permissionDenied)&lt;/font&gt;" style="html=1;verticalAlign=bottom;endArrow=open;dashed=1;endSize=8;edgeStyle=elbowEdgeStyle;elbow=vertical;curved=0;rounded=0;" parent="1" edge="1" source="Z0eBupUTOme7VVrgAo7x-37">
          <mxGeometry x="0.0187" relative="1" as="geometry">
            <mxPoint x="-85.00000000000001" y="754.47" as="targetPoint" />
            <Array as="points">
              <mxPoint x="-20.00000000000001" y="754" />
              <mxPoint x="59.99999999999999" y="752" />
              <mxPoint x="119.99999999999999" y="752" />
            </Array>
            <mxPoint x="129.9999999999999" y="754" as="sourcePoint" />
            <mxPoint as="offset" />
          </mxGeometry>
        </mxCell>
        <mxCell id="Z0eBupUTOme7VVrgAo7x-40" value="&lt;font style=&quot;font-size: 9px;&quot;&gt;19 : outcomeMessage&lt;/font&gt;" style="html=1;verticalAlign=bottom;endArrow=open;dashed=1;endSize=8;edgeStyle=elbowEdgeStyle;elbow=horizontal;curved=0;rounded=0;" parent="1" target="Z0eBupUTOme7VVrgAo7x-37" edge="1">
          <mxGeometry x="0.0367" relative="1" as="geometry">
            <mxPoint x="239.9999999999999" y="722.94" as="targetPoint" />
            <Array as="points">
              <mxPoint x="249.9999999999999" y="722" />
            </Array>
            <mxPoint x="467.24000000000007" y="722" as="sourcePoint" />
            <mxPoint as="offset" />
          </mxGeometry>
        </mxCell>
        <mxCell id="dwxQc4JX1qqIGijaAQSD-1" value="" style="endArrow=none;dashed=1;html=1;rounded=0;strokeWidth=2;exitX=0;exitY=0.677;exitDx=0;exitDy=0;exitPerimeter=0;" edge="1" parent="1">
          <mxGeometry width="50" height="50" relative="1" as="geometry">
            <mxPoint x="-230" y="700" as="sourcePoint" />
            <mxPoint x="800" y="703" as="targetPoint" />
          </mxGeometry>
        </mxCell>
        <mxCell id="dwxQc4JX1qqIGijaAQSD-3" value="" style="endArrow=none;dashed=1;html=1;rounded=0;" edge="1" parent="1">
          <mxGeometry width="50" height="50" relative="1" as="geometry">
            <mxPoint x="-90.5" y="770" as="sourcePoint" />
            <mxPoint x="-90.5" y="760" as="targetPoint" />
          </mxGeometry>
        </mxCell>
        <mxCell id="Z0eBupUTOme7VVrgAo7x-2" value="" style="endArrow=classic;html=1;rounded=0;" parent="1" target="Z0eBupUTOme7VVrgAo7x-1" edge="1">
          <mxGeometry width="50" height="50" relative="1" as="geometry">
            <mxPoint x="315" y="230" as="sourcePoint" />
            <mxPoint x="626.92" y="230" as="targetPoint" />
          </mxGeometry>
        </mxCell>
        <mxCell id="Z0eBupUTOme7VVrgAo7x-3" value="&lt;font style=&quot;font-size: 9px;&quot;&gt;4 : outcomePermissionCheck&lt;/font&gt;" style="html=1;verticalAlign=bottom;endArrow=open;dashed=1;endSize=8;edgeStyle=elbowEdgeStyle;elbow=horizontal;curved=0;rounded=0;" parent="1" source="Z0eBupUTOme7VVrgAo7x-1" edge="1" target="A8Glidg6pX9W6yxCaNTG-2">
          <mxGeometry relative="1" as="geometry">
            <mxPoint x="286" y="260" as="targetPoint" />
            <Array as="points">
              <mxPoint x="366" y="260" />
            </Array>
            <mxPoint x="556" y="260" as="sourcePoint" />
          </mxGeometry>
        </mxCell>
      </root>
    </mxGraphModel>
  </diagram>
</mxfile>
